<?xml version="1.0" encoding="UTF-8" standalone="no"?>
<!-- Created with Inkscape (http://www.inkscape.org/) -->

<svg
  width="1064.7457"
  height="414.0209"
  viewBox="0 0 53.237286 20.701044"
  version="1.1"
  id="svg1"
  xml:space="preserve"
  inkscape:version="1.4.2 (f4327f4, 2025-05-13)"
  sodipodi:docname="logo-base.svg"
  inkscape:export-filename="logo-base.svg"
  inkscape:export-xdpi="96"
  inkscape:export-ydpi="96"
  xmlns:inkscape="http://www.inkscape.org/namespaces/inkscape"
  xmlns:sodipodi="http://sodipodi.sourceforge.net/DTD/sodipodi-0.dtd"
  xmlns:xlink="http://www.w3.org/1999/xlink"
  xmlns="http://www.w3.org/2000/svg"
  xmlns:svg="http://www.w3.org/2000/svg"><sodipodi:namedview
     id="namedview1"
     pagecolor="#505050"
     bordercolor="#ffffff"
     borderopacity="1"
     inkscape:showpageshadow="0"
     inkscape:pageopacity="0"
     inkscape:pagecheckerboard="1"
     inkscape:deskcolor="#505050"
     inkscape:document-units="mm"
     inkscape:zoom="0.7071068"
     inkscape:cx="760.84688"
     inkscape:cy="236.88077"
     inkscape:window-width="2560"
     inkscape:window-height="1377"
     inkscape:window-x="1432"
     inkscape:window-y="483"
     inkscape:window-maximized="1"
     inkscape:current-layer="svg1" /><defs
     id="defs1"><linearGradient
       id="linearGradient1"
       inkscape:collect="always"><stop
         style="stop-color:#1c2321;stop-opacity:1;"
         offset="0.27013424"
         id="stop1" /><stop
         style="stop-color:#1c321d;stop-opacity:1;"
         offset="1"
         id="stop2" /></linearGradient><filter
       inkscape:menu-tooltip="In and out glow with a possible offset and colorizable flood"
       inkscape:menu="Shadows and Glows"
       inkscape:label="Cutout Glow"
       style="color-interpolation-filters:sRGB"
       id="filter24"
       x="-0.001995289"
       y="-0.0057905461"
       width="1.1233999"
       height="1.3561257"><feOffset
         dy="3"
         dx="3"
         id="feOffset24" /><feGaussianBlur
         stdDeviation="0.00014148643"
         result="blur"
         id="feGaussianBlur24" /><feFlood
         flood-color="rgb(0,0,0)"
         flood-opacity="1"
         result="flood"
         id="feFlood24" /><feComposite
         in="flood"
         in2="SourceGraphic"
         operator="in"
         result="composite"
         id="feComposite24" /><feBlend
         in="blur"
         in2="composite"
         mode="normal"
         id="feBlend24" /></filter><filter
       inkscape:menu-tooltip="In and out glow with a possible offset and colorizable flood"
       inkscape:menu="Shadows and Glows"
       inkscape:label="Cutout Glow"
       style="color-interpolation-filters:sRGB"
       id="filter35"
       x="-0.21213204"
       y="-0.21851656"
       width="1.5126524"
       height="1.5280817"><feOffset
         dy="3"
         dx="3"
         id="feOffset35" /><feGaussianBlur
         stdDeviation="3"
         result="blur"
         id="feGaussianBlur35" /><feFlood
         flood-color="rgb(0,0,0)"
         flood-opacity="1"
         result="flood"
         id="feFlood35" /><feComposite
         in="flood"
         in2="SourceGraphic"
         operator="in"
         result="composite"
         id="feComposite35" /><feBlend
         in="blur"
         in2="composite"
         mode="normal"
         id="feBlend35" /></filter><linearGradient
       inkscape:collect="always"
       xlink:href="#linearGradient1"
       id="linearGradient2"
       x1="711.49744"
       y1="161.92636"
       x2="805.87268"
       y2="833.44104"
       gradientUnits="userSpaceOnUse"
       gradientTransform="matrix(0.07848183,0,0,0.08069125,-32.915497,-29.808184)" /></defs><path
     id="path8"
     style="display:inline;mix-blend-mode:normal;fill:url(#linearGradient2);fill-rule:nonzero;stroke:none;stroke-width:0.05;stroke-miterlimit:0;stroke-dasharray:none;stroke-opacity:1"
     inkscape:label="to"
     d="m 30.20351,20.654666 c -1.32328,-0.05191 -2.663866,-0.447448 -3.685492,-0.907455 -1.668427,-0.751236 -3.011176,-2.042686 -3.069414,-4.249627 -0.07308,-2.769004 0.608932,-6.0550984 1.596611,-8.9113884 0.460305,-1.331169 1.844306,-3.4531089 2.777316,-4.2045669 1.673887,-1.348171 3.216951,-1.80681996 5.504907,-2.18058396 1.664135,-0.271855 9.726695,-0.233526 11.565516,-0.08778 5.120804,0.405873 7.108357,1.58847796 7.974278,3.93164296 l 0.157098,0.425123 -4.222651,-0.05249 C 37.932543,4.2824547 35.561828,4.2635047 34.779594,4.3617707 32.677081,4.6258746 31.728563,5.1387146 30.89751,6.4607126 c -0.912296,1.451239 -1.982018,5.7486884 -1.868772,7.5075284 0.07344,1.140594 0.468951,1.695137 1.500808,2.104267 1.260217,0.499672 5.103099,0.561709 7.149351,0.534942 2.449595,-0.03204 4.579884,-0.124092 5.925572,-0.489073 1.345687,-0.364976 2.073735,-1.477418 2.459457,-2.974181 0.416402,-1.615814 1.378118,-4.7365464 1.266329,-5.7322704 -0.07809,-0.695536 -0.38242,-0.966077 -0.87264,-1.470103 -0.297925,-0.306305 -0.383343,-0.338875 -0.210911,-0.376544 0.214865,-0.04694 3.325046,-0.05332 3.671759,-0.05461 0.319096,-0.0012 3.177687,-0.07561 3.29399,0.09513 0.07824,0.114834 -0.05044,1.134449 -0.08344,1.381838 -0.20997,1.573087 -0.274868,1.950475 -0.823008,4.2391014 -0.317858,1.327141 -0.995235,3.510782 -1.393899,4.322767 -0.662356,1.349058 -1.919039,2.80484 -2.736002,3.359445 -1.212466,0.823098 -2.925003,1.381062 -5.254994,1.672998 -0.863968,0.108252 -10.359454,0.165175 -12.717589,0.07269 z M 7.9019504,20.52134 C 7.9407614,20.169407 11.343862,4.6777076 11.145339,4.6253366 10.438242,4.4388007 6.7189684,4.5301766 5.6432795,4.5549866 2.6979939,4.6229766 2.2874949,4.5875518 1.418267,4.6180086 0.2661964,4.6307876 0,4.4267536 0,4.4267536 l 0.4589993,-0.815274 c 0.2427235,-0.47766 0.7715703,-1.442912 1.1596289,-2.153702 L 2.3915631,0.04202764 H 15.84972 l 14.108276,-1.7e-5 c 0,0 -0.787822,0.073225 -2.127504,0.8997197 -1.345734,0.83022916 -2.00151,1.65633786 -3.160138,3.54254626 l -2.833838,-0.13499 c -0.548428,-0.02544 -4.358561,-0.02685 -4.909379,0.276249 -0.246082,0.142269 -1.505698,6.7789384 -1.781481,8.1430314 -0.23261,1.150564 -1.369481,7.067111 -1.43349,7.301786 -0.0669,0.245357 -0.111445,0.443458 -0.275912,0.510283 -0.222295,0.08366 -1.154487,0.08359 -2.858856,0.08359 -2.5525496,0 -2.5599986,-0.08237 -2.6754556,-0.142898 z"
     sodipodi:nodetypes="cscssssscscssssssssssccsssscccsccccscccscccsccscc" /></svg>